

<!-- Uploaded to: SVG Repo, www.svgrepo.com, Transformed by: SVG Repo Mixer Tools -->
<svg xmlns="http://www.w3.org/2000/svg" aria-label="Telegram" role="img" viewBox="-102.4 -102.4 716.80 716.80" width="800px" height="800px" fill="#000000">

<rect x="-102.4" y="-102.4" width="716.80" height="716.80" rx="358.4" fill="#22c55e" strokewidth="0"/>

<rect width="512" height="512" rx="15%" fill="#22c55e"/>

<path fill="#c8daea" d="M199 404c-11 0-10-4-13-14l-32-105 245-144"/>

<path fill="#a9c9dd" d="M199 404c7 0 11-4 16-8l45-43-56-34"/>

<path fill="#f6fbfe" d="M204 319l135 99c14 9 26 4 30-14l55-258c5-22-9-32-24-25L79 245c-21 8-21 21-4 26l83 26 190-121c9-5 17-3 11 4"/>



</svg>